<mxfile host="app.diagrams.net" modified="2024-03-15T15:47:22.782Z" agent="Mozilla/5.0 (Macintosh; Intel Mac OS X 10_15_7) AppleWebKit/605.1.15 (KHTML, like Gecko) Version/16.3 Safari/605.1.15" etag="ViD37vf8SoRAYX6IfEO8" version="24.0.7" type="github">
  <diagram name="Page-1" id="zIjkKBDfy8JNLCihgErq">
    <mxGraphModel dx="880" dy="431" grid="1" gridSize="10" guides="1" tooltips="1" connect="1" arrows="1" fold="1" page="1" pageScale="1" pageWidth="850" pageHeight="1100" math="0" shadow="0">
      <root>
        <mxCell id="0" />
        <mxCell id="1" parent="0" />
        <mxCell id="bRxHJsL5RXXogd2_luSK-1" value="" style="rounded=0;whiteSpace=wrap;html=1;" vertex="1" parent="1">
          <mxGeometry x="200" y="100" width="120" height="60" as="geometry" />
        </mxCell>
        <mxCell id="bRxHJsL5RXXogd2_luSK-2" value="Anti Virus" style="text;html=1;align=center;verticalAlign=middle;whiteSpace=wrap;rounded=0;" vertex="1" parent="1">
          <mxGeometry x="230" y="115" width="60" height="30" as="geometry" />
        </mxCell>
      </root>
    </mxGraphModel>
  </diagram>
</mxfile>
